<svg id="Layer_1" data-name="Layer 1" xmlns="http://www.w3.org/2000/svg" viewBox="0 0 463.46 100.21"><defs><style>.cls-1{fill:#feb900;}.cls-2{fill:#4285f3;}.cls-3{fill:#e94335;}.cls-4{fill:#2684fb;}.cls-5{fill:#00ab47;}.cls-6{fill:#feb901;}.cls-7{fill:#01ac48;}.cls-8{fill:#03ac49;}.cls-9{fill:#4486f3;}.cls-10{fill:#35a854;}.cls-11{fill:#f9bb05;}.cls-12{fill:#34a753;}.cls-13{fill:#2784fa;}.cls-14{fill:#0167d9;}.cls-15{fill:#f9ba06;}.cls-16{fill:#01832e;}.cls-17{fill:#c42320;}.cls-18{fill:#0368da;}.cls-19{fill:#e84637;}.cls-20{fill:#0268d8;}.cls-21{fill:#01832d;}.cls-22{fill:#1a8139;}.cls-23{fill:#1967d1;}.cls-24{fill:#e94535;}.cls-25{fill:#e84336;}.cls-26{fill:#e94336;}.cls-27{fill:#fefdfc;}.cls-28{fill:#fcfdfd;}.cls-29{fill:#fdfdfc;}.cls-30{fill:#fdfdfd;}.cls-31{fill:#528ff4;}.cls-32{fill:#4687f3;}</style></defs><path class="cls-1" d="M294.66,65q-.12-19-.24-37.92c0-2.72.87-5,3.89-5,7.88.06,15.79-.92,23.63.51,1.82,4.18,1.72,8.47.75,12.81a3.25,3.25,0,0,1-1.14,1.4c-2.08,1.09-4.37,1-6.6.89-3.8-.12-5.21,1.69-5.22,5.3,0,7.19.16,14.37,0,21.57a2.21,2.21,0,0,1-1.19,1.35C303.85,66.67,299.13,67.65,294.66,65Z"/><path class="cls-2" d="M122.13,63.84c-.06-10.82-.08-21.65-.19-32.47,0-3.91,1.78-5.58,5.71-5.53,10.93.13,21.86.12,32.79.17,2.26,3.43,1.59,7.05.73,10.69A3,3,0,0,1,159.89,38c-6.11,1.48-12.33.48-18.5.73-5.88.24-6.4.67-6.51,6.57s.1,11.94.05,17.92a2.12,2.12,0,0,1-1,1.47C129.89,65.64,125.88,66.57,122.13,63.84Z"/><path class="cls-3" d="M78.43,49.72c-3.78,2.73-7.82,5.17-11.26,8.26-3.25,2.92-5.57,2.66-8.73-.1-3.48-3.05-7.5-5.5-11.28-8.21a3.29,3.29,0,0,1-1.25-1.53c-.46-5.18-2-10.45,1.19-15.36,4.31,3.07,8.72,6,12.89,9.26,2.16,1.67,3.69,1.62,5.82,0,4-3.15,8.3-6,12.47-9,2.64,4.69.83,9.81,1.44,14.69C79.71,48.65,79.56,49.5,78.43,49.72Z"/><path class="cls-4" d="M250.68,74.29c-1.25,1.2-2.85,1.06-4.39,1.06q-15.27,0-30.53,0c-1.18,0-2.45.23-3.38-.82-1.39-2.16,0-4,1-5.61,2.23-3.58,3.86-7.57,7.08-10.49a5.6,5.6,0,0,1,1.55-.67,109.52,109.52,0,0,1,18.11-.08,6.23,6.23,0,0,1,1.57.55C245.74,63,249.71,67.82,250.68,74.29Z"/><path class="cls-5" d="M202.83,59c-.46-1.88.7-3.26,1.53-4.7q7.17-12.39,14.46-24.72c1-1.72,1.75-3.76,4-4.37a61.91,61.91,0,0,1,8.86,14.91,4.27,4.27,0,0,1,0,1.47c-2.94,6.14-5.86,12.3-10.77,17.25a.57.57,0,0,0-.51.29A25.23,25.23,0,0,1,202.83,59Z"/><path class="cls-1" d="M231.23,41.31v-1c1.57-5.8,4.24-11,8.87-15,5.43,5.36,8.11,12.46,11.89,18.84,2.82,4.74,6.74,9,7.56,14.79-5.82,2.44-11.68,2.13-17.56.22a1,1,0,0,1-.54-.28C236.92,53.66,233,48.08,231.23,41.31Z"/><path class="cls-6" d="M384.19,27.89c9.64-1.84,19.35-.61,29-.59,2.25,0,3.38,2,3.37,4.4,0,2.55.1,5.09.16,7.64a1.86,1.86,0,0,1,0,1.5c-2.45,3.31-6,5.41-9.2,7.8-1.2.89-2.82,2.35-4.31.12-1.47-7-1.47-6.95-9-7-3.21,0-6.49.48-9.62-.74a3,3,0,0,1-1.2-1.31C382.4,35.66,382.12,31.7,384.19,27.89Z"/><path class="cls-7" d="M416.62,62.24c-.19,11.51,2,12.16-12.15,11.93-6.73-.11-13.46-.16-20.18-.24-2.6-3.92-1.53-8.11-.94-12.26a3.1,3.1,0,0,1,1.1-1.33c3.11-1.36,6.41-.79,9.63-.84,7.6-.1,7.6,0,9.09-7,1.81-2.46,3.5-.56,4.83.41a59.05,59.05,0,0,1,8.87,7.85A1.52,1.52,0,0,1,416.62,62.24Z"/><path class="cls-4" d="M335.76,36.06c1.25,9.66.41,19.34.43,29-4.55,2.5-9.26,1.64-14,.7a3.24,3.24,0,0,1-1.32-1.42c-1.4-8.4-.68-16.84-.45-25.27a3.6,3.6,0,0,1,1.34-2.66l.22-.3C326.57,33.38,331.17,34.45,335.76,36.06Z"/><path class="cls-8" d="M416.62,62.24l-.11-1.3a29,29,0,0,1-.06-20.63,4.71,4.71,0,0,1,.29-1l7.35-5.61c2.52-1.93,4.33-1.58,4.37,1.78q.18,15.38,0,30.76c0,2.94-1.58,3.61-4,1.78Z"/><path class="cls-9" d="M46.85,48.75a2,2,0,0,0,.31.92c0,6.15-.18,12.3-.11,18.45,0,2.37-.72,3.19-3.22,3.33-9.19.53-10.15-.18-10-9.46.1-7.33-.58-14.67.44-22C39.7,41.13,43.29,44.92,46.85,48.75Z"/><path class="cls-10" d="M78.43,49.72l.68-1c3.42-3.92,6.84-7.84,12.47-8.6.07,8.71.11,17.42.2,26.13.07,6.88-5.14,4.7-8.9,5.24-4.69.67-4.31-2.3-4.3-5.33C78.62,60.65,78.49,55.18,78.43,49.72Z"/><path class="cls-11" d="M171.74,37.52c0,8.85.94,17.71-.48,26.52A13.12,13.12,0,0,1,161,64.8a3,3,0,0,1-1.36-1.34c-.94-8.55-1.9-17.11.56-25.59a.7.7,0,0,0,.4-.54C164.34,35,168.06,34.73,171.74,37.52Z"/><path class="cls-12" d="M160.47,74.64c-8.68,1.51-17.42.52-26.13.53-2.26-3.65-2-7.35-.25-11.09,0-.19,0-.38,0-.57,8.66-1.75,17.3-2,25.93.2l.34.32C163,67.55,162.07,71.09,160.47,74.64Z"/><path class="cls-13" d="M371.75,72.14c-1.85-2.08-1-4.61-.92-6.88.42-8.31-.95-16.68.82-24.94,4.15-2.06,8.31-2.53,12.48,0l.27.38a31.25,31.25,0,0,1,.11,20,.43.43,0,0,1-.3.41c-.65.25.23.27-.42.26C376.32,61.21,372.31,64.77,371.75,72.14Z"/><path class="cls-14" d="M321.94,65.27l14.25-.2c0,.17.06.34.07.51.55,14.59.55,14.59-14.45,13.51C319.4,74.46,319.25,69.85,321.94,65.27Z"/><path class="cls-15" d="M91.58,40.07l-12.47,8.6c-1.66-5.15-.3-10.44-.83-15.65,1-.88,2-1.8,3.06-2.65,2.15-1.73,4.52-2.46,7.16-1.23s3.37,3.64,3.27,6.36C91.71,37,91.64,38.55,91.58,40.07Z"/><path class="cls-16" d="M294.66,65l14.18.15c3.43,3.65,2.16,7.88,1.35,12-.31,1.57-1.77,1.92-3.26,1.84-3.41-.17-6.86.44-10.25-.36-3.64-1.67-2-5-2.23-7.58A42.07,42.07,0,0,1,294.66,65Z"/><path class="cls-7" d="M296.68,78.58c.34,0,.68-.09,1-.09,12.83-.32,12.83-.32,11.14-13.37l.11-.32a13.46,13.46,0,0,1,12.69.13l.3.34q-.07,6.92-.13,13.82C313.43,79.09,305,80.22,296.68,78.58Z"/><path class="cls-17" d="M46.85,48.75,34.24,40A5,5,0,0,1,34,39c-.11-3.69-1.05-7.86,3.31-9.84,4.19-1.9,7.1.82,9.77,3.61Q47,40.76,46.85,48.75Z"/><path class="cls-18" d="M371.75,72.14c0-11.77,0-11.77,11.95-11.1a4.54,4.54,0,0,1,.51.09q0,6.41.08,12.8C380.06,73.64,375.46,76,371.75,72.14Z"/><path class="cls-19" d="M242,59.16l17.56-.22a29,29,0,0,1-8.86,15.35Z"/><path class="cls-20" d="M202.83,59l17.59.13c-2.09,5.45-6.71,9.61-8,15.44C207,70.65,204.44,65.09,202.83,59Z"/><path class="cls-21" d="M240.09,25.31l-8.87,15c-2.95-5-6.75-9.44-8.37-15.1A53.33,53.33,0,0,1,240.09,25.31Z"/><path class="cls-22" d="M134.09,64.08c.08,3.7.16,7.39.25,11.09a9,9,0,0,1-1,.15c-11.57.41-11.8.17-11.19-11.48Z"/><path class="cls-23" d="M171.74,37.52l-11.17-.19c0-3.77-.09-7.54-.13-11.32C172.37,25.46,172.46,25.55,171.74,37.52Z"/><path class="cls-24" d="M335.76,36.06,322,36.12l-.06-13.58A113.9,113.9,0,0,1,335.76,36.06Z"/><path class="cls-25" d="M384.13,40.3l-12.48,0a84.21,84.21,0,0,1,12.54-12.43Z"/><path class="cls-26" d="M160.47,74.64c0-3.54-.05-7.07-.07-10.61l10.86,0A91.47,91.47,0,0,1,160.47,74.64Z"/><path class="cls-27" d="M321.64,64.93,309,64.8c-.09-8.41-.12-16.83-.32-25.24-.07-2.84,1.25-3.51,3.79-3.35,3.11.19,6.24.15,9.36.21Q321.71,50.67,321.64,64.93Z"/><path class="cls-28" d="M160.06,63.71l-25.93-.2c-.91-7.68-.18-15.38-.41-23.07-.06-2.19,1-3.07,3.17-3,7.76.25,15.54-.5,23.28.42Q160.11,50.8,160.06,63.71Z"/><path class="cls-29" d="M231.23,41.31l10.21,17.57-20.51-.08Q226.09,50.06,231.23,41.31Z"/><path class="cls-30" d="M384.51,60.72q-.06-10-.11-20c4.64-.07,9.3.13,13.9-.3s5.87,1.34,5.32,5.47a21.45,21.45,0,0,0,.22,4.06c.42.72,0,1.3-.33,1.9.05,8.94.05,8.95-8.73,8.94Z"/><path class="cls-21" d="M403.51,51.81c-1.06-.83.05-1.3.33-1.9l12.61-9.6.06,20.63C411.37,59,409,53.29,403.51,51.81Z"/><path class="cls-31" d="M140.56,51c.83-2.27,5.09-1.36,3.68-4.39s-4,.81-6.23-.53c1.31-3.35,3.88-3.59,6.64-2.57a3.38,3.38,0,0,1,1.76,5.45c-.9,1.3-.45,1.62,0,2.71,1,2.41,1.4,4.79-1.81,6.4-3.5,1.76-5.33.15-7.61-2.5,2.89-1.46,5.95,3.39,7.54-.67C145.67,52,142.31,52.09,140.56,51Z"/><path class="cls-32" d="M155.83,51.65c-.86,1.79,1.83,5.91-1.68,6.24-1.85.17-.44-4.38-1-6.72-.3-1.25,1.07-3.28-1.55-3.53-1-.09-1.83-.65-1-1.51a11.34,11.34,0,0,1,3.7-2.55c.91-.4,1.53.48,1.55,1.45C155.85,47.07,155.83,49.1,155.83,51.65Z"/></svg>