<svg class="logo-shadow" id="Layer_1" data-name="Layer 1" xmlns="http://www.w3.org/2000/svg" viewBox="0 0 250 250"><defs><clipPath id="clip-path"><path class="cls-1" d="M34.88 30.77h184.35v188.45H34.88z"/></clipPath><style>.cls-1{fill:none}</style></defs><g clip-path="url(#clip-path)"><path fill="#dd4326" d="M32.81 30.75h188.5v188.5H32.81z"/><path d="M264.79 191.47c-6.92-29.05-35.5-68.88-84.71-44-22.46 11.41-21.83 24.39-29.49 28.37-27.5 14.14-54.42-2.46-100.77 21.26 60.07-13.67 83.1 6.64 116.88 10 32.18 3.14 37.61-24.19 21-28.79-6.69-.69-10.23 3.4-10.74 7.11-.63 4.61 6.4 9.74 12.8 6.13-4.69 8.48-17.49 6.65-20.69.1-2.86-5.86 0-11.62 6.29-16.38 9.37-7.12 29.6-4.08 29.72 17.75.11 11-14.41 34.13-57.62 18.74C106 197 83.83 193.15 2.89 209.06c59.22-7.12 143.36 5.24 81.11 3.62 26 49.51 43.09 54.33 90.71 43 16.92 37.49 66.07 26.34 80.42-.47 46.41-11.13 35.95-59.21 9.66-63.74z" fill="#fff"/><text transform="matrix(1.01 0 0 1 43.83 78.44)" font-size="42.68" font-family="Exo2-Light,&quot;Exo 2&quot;" font-weight="300" fill="#fff"><tspan letter-spacing="-.11em">T</tspan><tspan x="19.72" y="0">eam</tspan><tspan font-family="Exo2-SemiBold,&quot;Exo 2&quot;" font-weight="600"><tspan x="0" y="38">Cloud</tspan></tspan><tspan x="0" y="76">Suite</tspan></text><path class="cls-1" d="M32.81 30.04h184.93v189.97H32.81z"/></g></svg>
